<?xml version="1.0" encoding="UTF-8" standalone="no"?>
<svg
   xmlns:dc="http://purl.org/dc/elements/1.1/"
   xmlns:cc="http://creativecommons.org/ns#"
   xmlns:rdf="http://www.w3.org/1999/02/22-rdf-syntax-ns#"
   xmlns:svg="http://www.w3.org/2000/svg"
   xmlns="http://www.w3.org/2000/svg"
   xmlns:xlink="http://www.w3.org/1999/xlink"
   xmlns:sodipodi="http://sodipodi.sourceforge.net/DTD/sodipodi-0.dtd"
   xmlns:inkscape="http://www.inkscape.org/namespaces/inkscape"
   id="svg4895"
   viewBox="0 0 576 128"
   version="1.0"
   sodipodi:docname="demo-tools.svg"
   width="576"
   height="128"
   inkscape:version="1.0.1 (3bc2e813f5, 2020-09-07)">
  <title
     id="title166">Demo Tools Logo</title>
  <sodipodi:namedview
     pagecolor="#ffffff"
     bordercolor="#666666"
     borderopacity="1"
     objecttolerance="10"
     gridtolerance="10"
     guidetolerance="10"
     inkscape:pageopacity="0"
     inkscape:pageshadow="2"
     inkscape:window-width="1519"
     inkscape:window-height="1198"
     id="namedview160"
     showgrid="false"
     inkscape:snap-text-baseline="false"
     inkscape:zoom="2.0757717"
     inkscape:cx="294.18323"
     inkscape:cy="64.357773"
     inkscape:window-x="7"
     inkscape:window-y="147"
     inkscape:window-maximized="0"
     inkscape:current-layer="svg4895" />
  <defs
     id="defs110">
    <linearGradient
       id="WhiteTransparent">
      <stop
         stop-color="#fff"
         offset="0"
         id="stop86" />
      <stop
         stop-color="#fff"
         stop-opacity="0"
         offset="1"
         id="stop88" />
    </linearGradient>
    <linearGradient
       id="BlackTransparent">
      <stop
         offset="0"
         id="stop91" />
      <stop
         stop-opacity="0"
         offset="1"
         id="stop93" />
    </linearGradient>
    <linearGradient
       id="lg1999"
       x1="637.03003"
       xlink:href="#WhiteTransparent"
       gradientUnits="userSpaceOnUse"
       y1="69.989998"
       gradientTransform="matrix(0.1,0.1,-0.22,0.2,75.6,-33.53)"
       x2="638.29999"
       y2="118.3" />
    <linearGradient
       id="lg02"
       x1="512.70001"
       xlink:href="#WhiteTransparent"
       gradientUnits="userSpaceOnUse"
       y1="254.36"
       gradientTransform="matrix(0.0807,0.0775,-0.35,0.36,77.14,-45.89)"
       x2="615.59003"
       y2="254.83" />
    <linearGradient
       id="lg05"
       x1="543.09998"
       xlink:href="#BlackTransparent"
       gradientUnits="userSpaceOnUse"
       y1="286.56"
       gradientTransform="matrix(0.0998,0.0998,-0.28,0.28,78.84,-44.8)"
       x2="419.88"
       y2="286.56" />
    <linearGradient
       id="lg09"
       x1="258.95999"
       xlink:href="#WhiteTransparent"
       gradientUnits="userSpaceOnUse"
       y1="62.740002"
       gradientTransform="matrix(0.33,0.33,-0.0944,0.0944,9.03,-48.1)"
       x2="258.95999"
       y2="-1.72" />
    <linearGradient
       id="lg12"
       x1="146.14999"
       xlink:href="#WhiteTransparent"
       gradientUnits="userSpaceOnUse"
       y1="288.57001"
       gradientTransform="matrix(0.3,0.3,-0.09,0.09,78.84,-44.8)"
       x2="146.14999"
       y2="368.26999" />
    <linearGradient
       id="lg16"
       x1="577.03003"
       xlink:href="#WhiteTransparent"
       gradientUnits="userSpaceOnUse"
       y1="124"
       gradientTransform="matrix(0.0775,0.0775,-0.36,0.36,78.84,-44.8)"
       x2="626.09998"
       y2="124" />
    <linearGradient
       id="lg19"
       x1="75.099998"
       xlink:href="#BlackTransparent"
       y1="189.14"
       gradientTransform="matrix(1.05,0,0,1.05,0.13,-140.54)"
       x2="71.769997"
       y2="185.8" />
    <linearGradient
       id="lg51"
       x1="646.23999"
       xlink:href="#WhiteTransparent"
       gradientUnits="userSpaceOnUse"
       y1="-252.60001"
       gradientTransform="matrix(0.2,0,0,0.2,-80.94,88.3)"
       x2="607.65997"
       y2="-186.25999" />
    <linearGradient
       id="lg55"
       x1="550.96002"
       xlink:href="#WhiteTransparent"
       gradientUnits="userSpaceOnUse"
       y1="-137.5"
       gradientTransform="matrix(0.26,0,0,0.26,-106.57,101.57)"
       x2="655.41998"
       y2="-241.2" />
    <linearGradient
       id="lgdg"
       x1="73.879997"
       xlink:href="#BlackTransparent"
       gradientUnits="userSpaceOnUse"
       y1="66.199997"
       gradientTransform="translate(-0.30267,-3.2014)"
       x2="84.300003"
       y2="86.68" />
    <clipPath
       id="clipoutline1"
       clipPathUnits="userSpaceOnUse">
      <path
         id="outline1"
         d="m 22.42,17.2 12.96,12.95 -2.5,8.78 -8.78,2.5 -12.96,-12.96 -5.86,5.86 14.89,21.46 17.56,-3.34 61.63,65.62 c 9.44,9.51 22.17,-4.75 13.34,-12.87 L 46.85,42.92 50.86,25.16 28.72,10.89 Z m 81.06,91.97 c 1.68,-1.68 4.4,-1.68 6.08,0 1.68,1.68 1.68,4.4 0,6.08 -1.68,1.67 -4.4,1.67 -6.08,0 -1.68,-1.68 -1.68,-4.4 0,-6.08 z" />
    </clipPath>
    <clipPath
       id="clipoutline2"
       clipPathUnits="userSpaceOnUse">
      <path
         id="outline2"
         d="m 55.8,12 0.76,0.16 c 8.84,-2.94 28.68,8.64 24.26,18.96 -1.12,1.62 -0.93,4.5 0.42,6.31 L 56.43,62.25 c -1.39,-1.39 -4.48,-1.36 -5.9,0 L 9.5,101.63 c -3.74,3.59 -0.8,6.64 0.78,8.25 l 7.36,7.36 c 1.61,1.6 5.86,3.76 8.88,0.56 L 65.24,76.99 c 1.35,-1.42 1.36,-4.47 0,-5.87 0,0 0.01,-0.02 0,-0.02 L 90.15,46.2 c 2.63,2.37 5.114,2.575 7.47,1.93 4.55,-1.245 7.09,3.207 9.81,6.46 l -1.23,1.21 c -1.82,1.84 -1.65,4.94 0.39,6.98 2.04,2.04 5.15,2.21 6.97,0.39 l 8.14,-8.13 c 1.82,-1.84 1.65,-4.94 -0.4,-6.97 -1.84,-1.85 -4.51,-2.09 -6.37,-0.77 -5.58,-6.26 -2.65,-7.2 -10.01,-15.35 L 91.13,17.86 C 81.2,8.12 68.3,8.13 55.8,12 Z" />
    </clipPath>
  </defs>
  <style
     type="text/css"
     id="style112">/* Specular Highlighting */
		.low-specularity	{opacity:0.25;}
		.specularity		{opacity:0.5;}
		.high-specularity	{opacity:0.75;}
		.full-specularity	{opacity:1;}
	/* Shading */
		.low-shade	{opacity:0.25;}
		.shade		{opacity:0.5;}
		.high-shade	{opacity:0.75;}
		.full-shade	{opacity:1;}
	/* Tango palette fill/stroke */
		.black		{fill:#000;}
		.aluminium1	{fill:#eeeeec;}
		.aluminium2	{fill:#d3d7cf;}
		.aluminium6	{fill:#2e3436;}
		.chocolate3	{fill:#8f5902;}
		.chocolate2	{fill:#c17d11;}
		.aluminium4	{fill:#888a85;}
	/* Shadows: Back-Shadows &amp; Base Shadows */
		.base-shadow	{opacity:0.4;}
		.outline-big	{stroke:black;stroke-width:8;opacity:0.25;stroke-linejoin:round;}
		.outline-small	{stroke:black;stroke-width:4;opacity:0.5;stroke-linejoin:round;}
		.stroke-highlight	{fill:none;stroke:white;stroke-opacity:0.2;stroke-width:4;stroke-linejoin:round;}</style>
  <g
     id="configuration">
    <g
       id="spanner">
      <use
         xlink:href="#outline1"
         class="outline-big"
         id="use114"
         x="0"
         y="0"
         width="100%"
         height="100%" />
      <use
         xlink:href="#outline1"
         class="outline-small"
         id="use116"
         x="0"
         y="0"
         width="100%"
         height="100%" />
      <use
         xlink:href="#outline1"
         class="aluminium4"
         id="use118"
         x="0"
         y="0"
         width="100%"
         height="100%" />
      <use
         xlink:href="#outline1"
         class="stroke-highlight"
         clip-path="url(#clipoutline1)"
         id="use120"
         x="0"
         y="0"
         width="100%"
         height="100%" />
      <path
         class="high-specularity"
         d="M 24.33,15.4 37.78,28.78 34.45,40.47 23.5,43.74 9.932,30 5.2,34.54 19.4,54.48 38.3,50.34 100.8,116.7 c 7.5,8.3 20.2,-2.67 11.14,-11.6 L 45.04,42 48.9,24.83 28.94,10.8 Z m 79.97,93.3 c 1.67,-1.67 4.63,-2 6.3,-0.3 1.7,1.67 3.06,4.63 0.65,7.84 -2,2 -5.2,1.92 -7.2,-0.24 -1.68,-1.68 -1.45,-5.6 0.25,-7.3 z"
         fill="url(#lg55)"
         id="path122" />
      <path
         class="specularity"
         d="M 24.2,15.42 47.67,39.07 50.89,25.2 28.79,10.8 Z"
         fill="url(#lg51)"
         id="path124" />
    </g>
    <path
       class="low-shade"
       d="m 70.739,65.52 4.631,4.28 c 0.38,4.32 -0.73,5.62 -7.83,11.64 l -8.6,-9.22 11.79,-6.7 z"
       fill="url(#lgdg)"
       id="path127" />
    <g
       id="hammer">
      <use
         xlink:href="#outline2"
         class="outline-big"
         id="use129"
         x="0"
         y="0"
         width="100%"
         height="100%" />
      <use
         xlink:href="#outline2"
         class="outline-small stroke-aluminium5"
         id="use131"
         x="0"
         y="0"
         width="100%"
         height="100%" />
      <path
         class="aluminium2"
         d="M 82.92,35.75 53.47,65.2 62.3,74.03 91.75,44.59 Z"
         id="path133" />
      <path
         class="specularity"
         d="M 88.93,41.76 59.48,71.2 62.3,74.03 91.75,44.59 Z"
         fill="url(#lg19)"
         id="path135" />
      <path
         d="M 86.46,37.04 57.13,66.37 60.92,70.16 89.5,40.08 Z"
         fill="url(#lg16)"
         id="path137" />
      <path
         class="aluminium6"
         d="m 55.8,12 0.76,0.16 c 8.84,-2.94 28.68,8.64 24.26,18.96 -1.12,1.62 -0.93,4.5 0.42,6.31 l 8.91,8.77 c 2.63,2.37 5.11,2.57 7.47,1.93 4.55,-1.23 7.08,3.2 9.81,6.46 l -1.23,1.21 c -1.82,1.84 -1.65,4.94 0.39,6.98 2.04,2.04 5.15,2.21 6.97,0.39 l 8.14,-8.13 c 1.82,-1.84 1.65,-4.94 -0.4,-6.97 -1.84,-1.85 -4.51,-2.09 -6.37,-0.77 -5.58,-6.26 -2.65,-7.2 -10.01,-15.35 L 91.13,17.86 C 81.2,8.12 68.3,8.13 55.8,12 Z"
         id="path139" />
      <path
         class="specularity"
         d="m 114.93,47.3 c -5.58,-6.26 -2.65,-7.2 -10.01,-15.35 L 91.13,17.86 C 85.44,12.28 78.77,9.9 71.77,9.6 l 41.13,41.53 2.98,-2.73 z"
         fill="url(#lg12)"
         id="path141" />
      <path
         class="low-specularity"
         d="m 81.45,28 c 0.05,1 -0.179,2 -0.65,3.12 -1.1,1.62 -0.91,4.5 0.44,6.31 l 8.91,8.77 c 2.63,2.37 5.11,2.57 7.47,1.93 1.08,-0.33 2.06,-0.27 2.98,0 C 103.4,48.9 81.44,27.58 81.45,27.9 Z"
         fill="url(#lg09)"
         id="path143" />
      <path
         d="m 56.43,62.25 c -1.39,-1.39 -4.48,-1.36 -5.9,0 L 9.5,101.63 c -3.74,3.59 -0.82,6.64 0.78,8.25 l 7.36,7.36 c 1.61,1.6 5.86,3.76 8.88,0.56 L 65.24,76.99 c 1.35,-1.42 1.36,-4.47 0,-5.87 0,0 0.01,-0.02 0,-0.02 z"
         fill="#3465a4"
         id="path145" />
      <path
         class="low-shade"
         d="m 10.27,109.87 7.36,7.37 c 1.61,1.6 5.73,3.89 8.75,0.71 L 65.25,76.98 c 1.35,-1.43 1.39,-4.5 0,-5.88 l -8.83,-8.84 z"
         fill="url(#lg05)"
         id="path147" />
      <path
         class="specularity"
         d="m 51.2,65.7 -38.88,38.04 c -1.62,1.56 -1.07,3.75 0.1,4.89 L 16.55,112.6 58.92,69 55,65.32 c -0.84,-0.8 -2.8,-0.57 -3.8,0.38 z"
         fill="url(#lg02)"
         id="path149" />
      <use
         xlink:href="#outline2"
         class="stroke-highlight"
         clip-path="url(#clipoutline2)"
         id="use151"
         x="0"
         y="0"
         width="100%"
         height="100%" />
      <path
         d="m 120.45,49.26 c 1.51,1.44 1.8,3.44 -0.28,5.36 l -3.87,3.63 c -2.08,1.95 -7.52,-3.25 -5.45,-5.19 l 3.88,-3.63 c 2.07,-1.95 4.21,-1.61 5.72,-0.17 z"
         fill="url(#lg1999)"
         id="path153" />
    </g>
  </g>
  <metadata
     id="metadata157">
    <rdf:RDF>
      <cc:Work>
        <dc:format>image/svg+xml</dc:format>
        <dc:type
           rdf:resource="http://purl.org/dc/dcmitype/StillImage" />
        <cc:license
           rdf:resource="http://creativecommons.org/publicdomain/zero/1.0/" />
        <dc:publisher>
          <cc:Agent
             rdf:about="http://openclipart.org/">
            <dc:title>Openclipart</dc:title>
          </cc:Agent>
        </dc:publisher>
        <dc:title>Demo Tools Logo</dc:title>
        <dc:date>2006-08-29T17:16:52</dc:date>
        <dc:description>A very glossy yet socialist looking hammer and spanner ;-) Adjusted for JAMStack E-Commerce Demo\n[b]\nContains internal stylesheet with configurable specularity, shade outlines and internal stroke-highlights.[/b]</dc:description>
        <dc:source>http://openclipart.org/detail/67/tools-hammer-spanner-by-andy</dc:source>
        <dc:creator>
          <cc:Agent>
            <dc:title>Andy</dc:title>
          </cc:Agent>
        </dc:creator>
        <dc:subject>
          <rdf:Bag>
            <rdf:li>build</rdf:li>
            <rdf:li>clip art</rdf:li>
            <rdf:li>clipart</rdf:li>
            <rdf:li>colour</rdf:li>
            <rdf:li>config</rdf:li>
            <rdf:li>contour</rdf:li>
            <rdf:li>develop</rdf:li>
            <rdf:li>glossy</rdf:li>
            <rdf:li>hammer</rdf:li>
            <rdf:li>hardware</rdf:li>
            <rdf:li>icon</rdf:li>
            <rdf:li>logo</rdf:li>
            <rdf:li>setting</rdf:li>
            <rdf:li>shiny</rdf:li>
            <rdf:li>spanner</rdf:li>
            <rdf:li>tool</rdf:li>
            <rdf:li>work</rdf:li>
          </rdf:Bag>
        </dc:subject>
      </cc:Work>
      <cc:License
         rdf:about="http://creativecommons.org/publicdomain/zero/1.0/">
        <cc:permits
           rdf:resource="http://creativecommons.org/ns#Reproduction" />
        <cc:permits
           rdf:resource="http://creativecommons.org/ns#Distribution" />
        <cc:permits
           rdf:resource="http://creativecommons.org/ns#DerivativeWorks" />
      </cc:License>
    </rdf:RDF>
  </metadata>
  <text
     xml:space="preserve"
     style="font-style:normal;font-weight:normal;font-size:154.667px;line-height:1.25;font-family:sans-serif;fill:#000000;fill-opacity:1;stroke:none"
     x="122.12521"
     y="120.3009"
     id="text164"><tspan
       sodipodi:role="line"
       id="tspan162"
       x="122.12521"
       y="120.3009"
       style="font-style:normal;font-variant:normal;font-weight:bold;font-stretch:normal;font-size:154.667px;font-family:sans-serif;-inkscape-font-specification:'sans-serif Bold';letter-spacing:-20px;fill:#e6e6e6">DEMO</tspan></text>
</svg>
